<?xml version="1.0" encoding="utf-8"?>
<!-- Generator: Adobe Illustrator 15.1.0, SVG Export Plug-In . SVG Version: 6.00 Build 0)  -->
<!DOCTYPE svg PUBLIC "-//W3C//DTD SVG 1.1//EN" "http://www.w3.org/Graphics/SVG/1.1/DTD/svg11.dtd">
<svg version="1.1" id="Layer_1" xmlns="http://www.w3.org/2000/svg" xmlns:xlink="http://www.w3.org/1999/xlink" x="0px" y="0px"
	 width="28.5px" height="13px" viewBox="0 0 28.5 13" enable-background="new 0 0 28.5 13" xml:space="preserve">
<path fill="#EFB80B" d="M19.143,11.143l0.66-0.66l-1.705-1.705l-0.66,0.66v0.776h0.93v0.929H19.143L19.143,11.143z M22.936,4.411
	c0-0.106-0.053-0.16-0.16-0.16c-0.047,0-0.088,0.017-0.121,0.051l-3.934,3.933c-0.033,0.033-0.051,0.074-0.051,0.123
	c0,0.104,0.053,0.158,0.16,0.158c0.049,0,0.09-0.017,0.125-0.051l3.93-3.932C22.92,4.5,22.936,4.459,22.936,4.411z M22.545,3.018
	l3.018,3.018l-6.037,6.036H16.51V9.055L22.545,3.018z M27.5,3.714c0,0.256-0.09,0.474-0.27,0.653l-1.205,1.204L23.01,2.554
	l1.203-1.197c0.174-0.184,0.393-0.275,0.652-0.275c0.258,0,0.477,0.092,0.66,0.275l1.705,1.698C27.41,3.243,27.5,3.463,27.5,3.714z"
	/>
<g id="icons">
	<path id="view" fill="#3250CC" d="M8.705,1.081c-3.236,0-6.06,1.998-7.438,4.89c-0.207,0.413-0.207,0.895,0,1.309
		C2.644,10.104,5.468,12.1,8.705,12.1s6.061-1.996,7.438-4.89c0.206-0.413,0.206-0.895,0-1.308
		C14.765,3.079,11.94,1.081,8.705,1.081z M8.705,9.346c-1.515,0-2.754-1.238-2.754-2.755c0-1.515,1.24-2.755,2.754-2.755
		c1.516,0,2.755,1.24,2.755,2.755C11.458,8.105,10.22,9.346,8.705,9.346z"/>
</g>
</svg>
